# xmcd
#
# Track frame offsets:
#	150
#	15656
#	32278
#	48891
#	65713
#	84941
#	101139
#	115554
#	136563
#	154556
#	167699
#	187223
#	200262
#
# Disc length: 2826 seconds
#
# Revision: 1
# Processed by: cddbd v1.5.2PL0 Copyright (c) Steve Scherf et al.
# Submitted via: audiograbber 1.83.01
#
DISCID=980b080d
DTITLE=Brixtonboogie - Urban Blues
DYEAR=2009
DGENRE=
TTITLE0=Grinnin'in ya Face
TTITLE1=Nobody but You
TTITLE2=By Myself
TTITLE3=If I...
TTITLE4=Left Hand Blues ( DUB)
TTITLE5=Hobo Travellin'
TTITLE6=Beautiful City
TTITLE7=The Way You Treat Love
TTITLE8=Love Will Do
TTITLE9=Policy Of Truth
TTITLE10=Fisherman's Chant
TTITLE11=Hey Hey
TTITLE12=Coming Home
EXTD=
EXTT0=
EXTT1=
EXTT2=
EXTT3=
EXTT4=
EXTT5=
EXTT6=
EXTT7=
EXTT8=
EXTT9=
EXTT10=
EXTT11=
EXTT12=
PLAYORDER=
